# xmcd
#
# Track frame offsets: 
#        150
#        16212
#        35231
#        53857
#        74048
#        92884
#        109803
#        129366
#        151471
#        171585
#        190839
#        212154
#        232711
#        255069
#        275141
#
# Disc length: 3971 seconds
#
# Revision: 3
# Processed by: cddbd v1.5.2PL0 Copyright (c) Steve Scherf et al.
# Submitted via: ExactAudioCopy v0.99pb5
#
DISCID=d70f810f
DTITLE=Various Artist -  2 CD1 
DYEAR=2002
DGENRE=Kpop
TTITLE0= - Love Song
TTITLE1=ġ -    ۿ
TTITLE2=JTL - A Better Day
TTITLE3=T - ð 帥 
TTITLE4=ȭ - 
TTITLE5=ȿ -  
TTITLE6=̼ - ׸ 
TTITLE7= - ߰
TTITLE8=ڱ⿵ - å
TTITLE9=â - 'ٸ 
TTITLE10= - 24ð ȭ
TTITLE11=õ - õ
TTITLE12=̰ - ٶ' 
TTITLE13= - 鿩 Ϸ
TTITLE14=, , ð, , , K2, Y2K, ̼ and ̰
TTITLE14= - Բ 
EXTD=
EXTT0=
EXTT1=Rich
EXTT2=JTL
EXTT3=Ƽ
EXTT4=ȭ
EXTT5=ȿ
EXTT6=̼
EXTT7=
EXTT8=ȿ
EXTT9=â
EXTT10=
EXTT11=As One
EXTT12=̰
EXTT13=
EXTT14=, , ð, , K2(), y2K(̼) ,̰ö
PLAYORDER=
